P1       # Image en noir et blanc
13 11    # Largeur = 13  Hauteur = 11
0000000000000
0000000000000
0001111100000
0001000100000
0001011111000
0001010101000
0001111101000
0000010001000
0000011111000
0000000000000
0000000000000
