P3   # Image en couleur
7 2  # Largeur = 7 Hauteur = 2
10   # 11 niveaux pour R, V ou B
0 0 0   5 0 0   0 0 0   0 5 0   0 0 0   8 8 8   0 0 0
0 0 0   5 0 0   0 0 0   0 5 0   0 0 0   8 8 8   0 0 0
